<svg xmlns="http://www.w3.org/2000/svg" xmlns:xlink="http://www.w3.org/1999/xlink" width="384.243" height="318.5pt" viewBox="-84.646 -30.2 288.182 318.5" xml:lang="en"><path d="M 0.0,-0.0 L 43.2,-0 L 46.2,-9 L 52.2,9 L 58.2,-9 L 64.2,9 L 70.2,-9 L 76.2,9 L 79.2,-0 L 122.4,-0" style="stroke:#8b949e;fill:none;stroke-width:2;stroke-dasharray:-;stroke-linecap:round;stroke-linejoin:round"/><path d="M 0.0,-0.0 L -28.8,-0 L -57.6,-0" style="stroke:#8b949e;fill:none;stroke-width:2;stroke-dasharray:-;stroke-linecap:round;stroke-linejoin:round"/><path d="M 122.4,-0.0 L 151.2,-0 L 180,-0" style="stroke:#8b949e;fill:none;stroke-width:2;stroke-dasharray:-;stroke-linecap:round;stroke-linejoin:round"/><path d="M 0.0,189.0 L 122.4,189 L 122.4,99 L 0,99 L 0,189" style="stroke:#8b949e;fill:none;stroke-width:2;stroke-dasharray:-;stroke-linecap:round;stroke-linejoin:round"/><path d="M 18.0,99.0 L 18,81" style="stroke:#8b949e;fill:none;stroke-width:2;stroke-dasharray:-;stroke-linecap:round;stroke-linejoin:round"/><path d="M 104.39999999999999,99.0 L 104.4,81" style="stroke:#8b949e;fill:none;stroke-width:2;stroke-dasharray:-;stroke-linecap:round;stroke-linejoin:round"/><path d="M 18.0,189.0 L 18,207" style="stroke:#8b949e;fill:none;stroke-width:2;stroke-dasharray:-;stroke-linecap:round;stroke-linejoin:round"/><path d="M 104.39999999999999,189.0 L 104.4,207" style="stroke:#8b949e;fill:none;stroke-width:2;stroke-dasharray:-;stroke-linecap:round;stroke-linejoin:round"/><path d="M 18.0,81.0 L 18,72 L 18,63" style="stroke:#8b949e;fill:none;stroke-width:2;stroke-dasharray:-;stroke-linecap:round;stroke-linejoin:round"/><path d="M 104.39999999999999,81.0 L 104.4,72 L 104.4,63" style="stroke:#8b949e;fill:none;stroke-width:2;stroke-dasharray:-;stroke-linecap:round;stroke-linejoin:round"/><path d="M 18.0,207.0 L 18,225 L 18,243" style="stroke:#8b949e;fill:none;stroke-width:2;stroke-dasharray:-;stroke-linecap:round;stroke-linejoin:round"/><path d="M 104.39999999999999,207.0 L 104.4,225 L 104.4,243" style="stroke:#8b949e;fill:none;stroke-width:2;stroke-dasharray:-;stroke-linecap:round;stroke-linejoin:round"/><text x="61.2" y="-25.6" fill="#8b949e" dominant-baseline="ideographic" font-family="sans" font-size="13" text-anchor="middle"><tspan x="61.2" dy="13">Rshunt 0.1Ω</tspan></text><text x="18" y="90.4" fill="#8b949e" dominant-baseline="hanging" font-family="sans" font-size="14" text-anchor="middle"><tspan x="18" dy="14">IN+</tspan></text><text x="104.4" y="90.4" fill="#8b949e" dominant-baseline="hanging" font-family="sans" font-size="14" text-anchor="middle"><tspan x="104.4" dy="14">IN−</tspan></text><text x="18" y="169.6" fill="#8b949e" dominant-baseline="ideographic" font-family="sans" font-size="14" text-anchor="middle"><tspan x="18" dy="14">SDA</tspan></text><text x="104.4" y="169.6" fill="#8b949e" dominant-baseline="ideographic" font-family="sans" font-size="14" text-anchor="middle"><tspan x="104.4" dy="14">SCL</tspan></text><text x="64.8" y="127.4" fill="#8b949e" dominant-baseline="central" font-family="sans" font-size="13" text-anchor="middle"><tspan x="64.8" dy="13">INA219</tspan></text><text x="21.6" y="212" fill="#8b949e" dominant-baseline="central" font-family="sans" font-size="13" text-anchor="start"><tspan x="21.6" dy="13">SDA</tspan></text><text x="108" y="212" fill="#8b949e" dominant-baseline="central" font-family="sans" font-size="13" text-anchor="start"><tspan x="108" dy="13">SCL</tspan></text><text x="64.8" y="264.2" fill="#8b949e" dominant-baseline="central" font-family="sans" font-size="13" text-anchor="middle"><tspan x="64.8" dy="13">Vshunt = I × Rshunt</tspan></text><circle cx="-57.6" cy="0" r="2.7" style="stroke:#8b949e;fill:#fff;stroke-width:2;stroke-dasharray:-"/><text x="-63.9" y="-13" fill="#8b949e" dominant-baseline="central" font-family="sans" font-size="13" text-anchor="end"><tspan x="-63.9" dy="13">V+</tspan></text><circle cx="180" cy="0" r="2.7" style="stroke:#8b949e;fill:#fff;stroke-width:2;stroke-dasharray:-"/><text x="186.3" y="-13" fill="#8b949e" dominant-baseline="central" font-family="sans" font-size="13" text-anchor="start"><tspan x="186.3" dy="13">tải</tspan></text><circle cx="0" cy="0" r="2.7" style="stroke:#8b949e;fill:#8b949e;stroke-width:2;stroke-dasharray:-"/><circle cx="122.4" cy="0" r="2.7" style="stroke:#8b949e;fill:#8b949e;stroke-width:2;stroke-dasharray:-"/></svg>